# xmcd
#
# Track frame offsets:
# 150
# 14423
# 25013
# 40918
# 59678
# 71940
# 83272
# 101511
# 110086
# 132276
# 147472
# 162647
# 181778
#
# Disc length: 2702 seconds
#
#
# Revision: 0
# Processed by: cddbd v1.5.2PL0 Copyright (c) Steve Scherf et al.
# Submitted via: FreeRIP 2.944 
#
DISCID=b50a8c0d
DTITLE=Tião Mineiro - Acordar Com Os Passarinhos
DYEAR=2012
DGENRE=Country
TTITLE0=Acordar Com Os Passarinhos
TTITLE1=A Princesa e o Operário
TTITLE2=Menino da Favela
TTITLE3=Velho Jardim das Paineiras
TTITLE4=Falando Com A Natureza
TTITLE5=Os Imigrantes
TTITLE6=Ford Véio
TTITLE7=Coroa Santa
TTITLE8=Nove Mulheres
TTITLE9=O Tropeiro e a Cabana
TTITLE10=As Três Camisas
TTITLE11=Brinquedo Primeiro
TTITLE12=Folia de Reis
EXTD=
EXTT0=
EXTT1=
EXTT2=
EXTT3=
EXTT4=
EXTT5=
EXTT6=
EXTT7=
EXTT8=
EXTT9=
EXTT10=
EXTT11=
EXTT12=
PLAYORDER=
